<mxfile host="Electron" agent="Mozilla/5.0 (Windows NT 10.0; Win64; x64) AppleWebKit/537.36 (KHTML, like Gecko) draw.io/28.2.5 Chrome/138.0.7204.251 Electron/37.6.1 Safari/537.36" version="28.2.5">
  <diagram id="C5RBs43oDa-KdzZeNtuy" name="Page-1">
    <mxGraphModel dx="445" dy="1192" grid="1" gridSize="10" guides="1" tooltips="1" connect="1" arrows="1" fold="1" page="1" pageScale="1" pageWidth="827" pageHeight="1169" math="0" shadow="0">
      <root>
        <mxCell id="WIyWlLk6GJQsqaUBKTNV-0" />
        <mxCell id="WIyWlLk6GJQsqaUBKTNV-1" parent="WIyWlLk6GJQsqaUBKTNV-0" />
        <mxCell id="4uAdI3qDmeeAsnVQvqSh-2" value="" style="edgeStyle=orthogonalEdgeStyle;rounded=0;orthogonalLoop=1;jettySize=auto;html=1;" edge="1" parent="WIyWlLk6GJQsqaUBKTNV-1" source="4uAdI3qDmeeAsnVQvqSh-0" target="4uAdI3qDmeeAsnVQvqSh-1">
          <mxGeometry relative="1" as="geometry" />
        </mxCell>
        <mxCell id="4uAdI3qDmeeAsnVQvqSh-0" value="Algus" style="ellipse;whiteSpace=wrap;html=1;" vertex="1" parent="WIyWlLk6GJQsqaUBKTNV-1">
          <mxGeometry x="280" y="40" width="120" height="40" as="geometry" />
        </mxCell>
        <mxCell id="4uAdI3qDmeeAsnVQvqSh-4" value="" style="edgeStyle=orthogonalEdgeStyle;rounded=0;orthogonalLoop=1;jettySize=auto;html=1;" edge="1" parent="WIyWlLk6GJQsqaUBKTNV-1" source="4uAdI3qDmeeAsnVQvqSh-1" target="4uAdI3qDmeeAsnVQvqSh-3">
          <mxGeometry relative="1" as="geometry" />
        </mxCell>
        <mxCell id="4uAdI3qDmeeAsnVQvqSh-1" value="Kuva kasutajale tekst &quot;Joonistan sulle kolmnurga&quot;" style="shape=parallelogram;perimeter=parallelogramPerimeter;whiteSpace=wrap;html=1;fixedSize=1;" vertex="1" parent="WIyWlLk6GJQsqaUBKTNV-1">
          <mxGeometry x="250" y="150" width="180" height="60" as="geometry" />
        </mxCell>
        <mxCell id="4uAdI3qDmeeAsnVQvqSh-6" value="" style="edgeStyle=orthogonalEdgeStyle;rounded=0;orthogonalLoop=1;jettySize=auto;html=1;" edge="1" parent="WIyWlLk6GJQsqaUBKTNV-1" source="4uAdI3qDmeeAsnVQvqSh-3" target="4uAdI3qDmeeAsnVQvqSh-5">
          <mxGeometry relative="1" as="geometry" />
        </mxCell>
        <mxCell id="4uAdI3qDmeeAsnVQvqSh-3" value="Tekitame muutuja nimega &quot;kolmnurgaSuurus&quot; kuhu tuleb käsurealt täisarv" style="shape=parallelogram;perimeter=parallelogramPerimeter;whiteSpace=wrap;html=1;fixedSize=1;" vertex="1" parent="WIyWlLk6GJQsqaUBKTNV-1">
          <mxGeometry x="250" y="290" width="180" height="60" as="geometry" />
        </mxCell>
        <mxCell id="4uAdI3qDmeeAsnVQvqSh-8" value="" style="edgeStyle=orthogonalEdgeStyle;rounded=0;orthogonalLoop=1;jettySize=auto;html=1;" edge="1" parent="WIyWlLk6GJQsqaUBKTNV-1" source="4uAdI3qDmeeAsnVQvqSh-5" target="4uAdI3qDmeeAsnVQvqSh-7">
          <mxGeometry relative="1" as="geometry" />
        </mxCell>
        <mxCell id="4uAdI3qDmeeAsnVQvqSh-5" value="Ootab kasutaja sisendit" style="whiteSpace=wrap;html=1;" vertex="1" parent="WIyWlLk6GJQsqaUBKTNV-1">
          <mxGeometry x="280" y="430" width="120" height="60" as="geometry" />
        </mxCell>
        <mxCell id="4uAdI3qDmeeAsnVQvqSh-9" style="edgeStyle=orthogonalEdgeStyle;rounded=0;orthogonalLoop=1;jettySize=auto;html=1;entryX=1;entryY=0.5;entryDx=0;entryDy=0;" edge="1" parent="WIyWlLk6GJQsqaUBKTNV-1" source="4uAdI3qDmeeAsnVQvqSh-7" target="4uAdI3qDmeeAsnVQvqSh-5">
          <mxGeometry relative="1" as="geometry">
            <Array as="points">
              <mxPoint x="420" y="615" />
              <mxPoint x="420" y="460" />
            </Array>
          </mxGeometry>
        </mxCell>
        <mxCell id="4uAdI3qDmeeAsnVQvqSh-10" value="EI" style="edgeLabel;html=1;align=center;verticalAlign=middle;resizable=0;points=[];" vertex="1" connectable="0" parent="4uAdI3qDmeeAsnVQvqSh-9">
          <mxGeometry x="-0.0154" relative="1" as="geometry">
            <mxPoint as="offset" />
          </mxGeometry>
        </mxCell>
        <mxCell id="4uAdI3qDmeeAsnVQvqSh-12" value="" style="edgeStyle=orthogonalEdgeStyle;rounded=0;orthogonalLoop=1;jettySize=auto;html=1;" edge="1" parent="WIyWlLk6GJQsqaUBKTNV-1" source="4uAdI3qDmeeAsnVQvqSh-7" target="4uAdI3qDmeeAsnVQvqSh-11">
          <mxGeometry relative="1" as="geometry" />
        </mxCell>
        <mxCell id="4uAdI3qDmeeAsnVQvqSh-7" value="Kas kasutaja on sisestanud arvu?" style="rhombus;whiteSpace=wrap;html=1;" vertex="1" parent="WIyWlLk6GJQsqaUBKTNV-1">
          <mxGeometry x="280" y="560" width="120" height="110" as="geometry" />
        </mxCell>
        <mxCell id="4uAdI3qDmeeAsnVQvqSh-14" value="" style="edgeStyle=orthogonalEdgeStyle;rounded=0;orthogonalLoop=1;jettySize=auto;html=1;" edge="1" parent="WIyWlLk6GJQsqaUBKTNV-1" source="4uAdI3qDmeeAsnVQvqSh-11" target="4uAdI3qDmeeAsnVQvqSh-13">
          <mxGeometry relative="1" as="geometry" />
        </mxCell>
        <mxCell id="4uAdI3qDmeeAsnVQvqSh-11" value="Tekitame tsüklimuutuja &quot;i&quot; mille sees on algväärtus &quot;1&quot;" style="shape=parallelogram;perimeter=parallelogramPerimeter;whiteSpace=wrap;html=1;fixedSize=1;" vertex="1" parent="WIyWlLk6GJQsqaUBKTNV-1">
          <mxGeometry x="210" y="775" width="260" height="45" as="geometry" />
        </mxCell>
        <mxCell id="4uAdI3qDmeeAsnVQvqSh-16" value="" style="edgeStyle=orthogonalEdgeStyle;rounded=0;orthogonalLoop=1;jettySize=auto;html=1;" edge="1" parent="WIyWlLk6GJQsqaUBKTNV-1" source="4uAdI3qDmeeAsnVQvqSh-13" target="4uAdI3qDmeeAsnVQvqSh-15">
          <mxGeometry relative="1" as="geometry" />
        </mxCell>
        <mxCell id="4uAdI3qDmeeAsnVQvqSh-17" value="JAH" style="edgeLabel;html=1;align=center;verticalAlign=middle;resizable=0;points=[];" vertex="1" connectable="0" parent="4uAdI3qDmeeAsnVQvqSh-16">
          <mxGeometry x="-0.44" y="-2" relative="1" as="geometry">
            <mxPoint as="offset" />
          </mxGeometry>
        </mxCell>
        <mxCell id="4uAdI3qDmeeAsnVQvqSh-13" value="Kas &quot;i&quot; on väiksem või võrdne kasutaja sisestatud &quot;kolmnurgaSuurus&quot;?" style="rhombus;whiteSpace=wrap;html=1;" vertex="1" parent="WIyWlLk6GJQsqaUBKTNV-1">
          <mxGeometry x="240" y="882.5" width="200" height="127.5" as="geometry" />
        </mxCell>
        <mxCell id="4uAdI3qDmeeAsnVQvqSh-19" value="" style="edgeStyle=orthogonalEdgeStyle;rounded=0;orthogonalLoop=1;jettySize=auto;html=1;" edge="1" parent="WIyWlLk6GJQsqaUBKTNV-1" source="4uAdI3qDmeeAsnVQvqSh-15" target="4uAdI3qDmeeAsnVQvqSh-18">
          <mxGeometry relative="1" as="geometry" />
        </mxCell>
        <mxCell id="4uAdI3qDmeeAsnVQvqSh-15" value="Tekitame tühja rea konsooli, kasutades käsklust Console.WriteLine&lt;div&gt;ilma parameetrita&lt;/div&gt;" style="shape=parallelogram;perimeter=parallelogramPerimeter;whiteSpace=wrap;html=1;fixedSize=1;" vertex="1" parent="WIyWlLk6GJQsqaUBKTNV-1">
          <mxGeometry x="240" y="1060" width="200" height="86.25" as="geometry" />
        </mxCell>
        <mxCell id="4uAdI3qDmeeAsnVQvqSh-22" value="" style="edgeStyle=orthogonalEdgeStyle;rounded=0;orthogonalLoop=1;jettySize=auto;html=1;" edge="1" parent="WIyWlLk6GJQsqaUBKTNV-1" source="4uAdI3qDmeeAsnVQvqSh-18" target="4uAdI3qDmeeAsnVQvqSh-21">
          <mxGeometry relative="1" as="geometry" />
        </mxCell>
        <mxCell id="4uAdI3qDmeeAsnVQvqSh-18" value="Tekitame tsüklimuutuja &quot;j&quot;&lt;div&gt;mille sees on algväärtus 1&lt;/div&gt;" style="shape=parallelogram;perimeter=parallelogramPerimeter;whiteSpace=wrap;html=1;fixedSize=1;" vertex="1" parent="WIyWlLk6GJQsqaUBKTNV-1">
          <mxGeometry x="260" y="1180.01" width="160" height="60" as="geometry" />
        </mxCell>
        <mxCell id="4uAdI3qDmeeAsnVQvqSh-20" value="i-white algus" style="text;html=1;align=center;verticalAlign=middle;resizable=0;points=[];autosize=1;strokeColor=none;fillColor=none;" vertex="1" parent="WIyWlLk6GJQsqaUBKTNV-1">
          <mxGeometry x="345" y="838" width="90" height="30" as="geometry" />
        </mxCell>
        <mxCell id="4uAdI3qDmeeAsnVQvqSh-24" value="" style="edgeStyle=orthogonalEdgeStyle;rounded=0;orthogonalLoop=1;jettySize=auto;html=1;" edge="1" parent="WIyWlLk6GJQsqaUBKTNV-1" source="4uAdI3qDmeeAsnVQvqSh-21" target="4uAdI3qDmeeAsnVQvqSh-23">
          <mxGeometry relative="1" as="geometry" />
        </mxCell>
        <mxCell id="4uAdI3qDmeeAsnVQvqSh-30" value="" style="edgeStyle=orthogonalEdgeStyle;rounded=0;orthogonalLoop=1;jettySize=auto;html=1;" edge="1" parent="WIyWlLk6GJQsqaUBKTNV-1" source="4uAdI3qDmeeAsnVQvqSh-21" target="4uAdI3qDmeeAsnVQvqSh-29">
          <mxGeometry relative="1" as="geometry">
            <Array as="points">
              <mxPoint x="100" y="1330" />
              <mxPoint x="100" y="1590" />
              <mxPoint x="330" y="1590" />
            </Array>
          </mxGeometry>
        </mxCell>
        <mxCell id="4uAdI3qDmeeAsnVQvqSh-21" value="Kas &quot;j&quot; on väiksem või võrdne kui eelmise while trükimuutuja &quot;i&quot;" style="rhombus;whiteSpace=wrap;html=1;" vertex="1" parent="WIyWlLk6GJQsqaUBKTNV-1">
          <mxGeometry x="160" y="1270" width="360" height="119.99" as="geometry" />
        </mxCell>
        <mxCell id="4uAdI3qDmeeAsnVQvqSh-26" value="" style="edgeStyle=orthogonalEdgeStyle;rounded=0;orthogonalLoop=1;jettySize=auto;html=1;" edge="1" parent="WIyWlLk6GJQsqaUBKTNV-1" source="4uAdI3qDmeeAsnVQvqSh-23" target="4uAdI3qDmeeAsnVQvqSh-25">
          <mxGeometry relative="1" as="geometry" />
        </mxCell>
        <mxCell id="4uAdI3qDmeeAsnVQvqSh-23" value="Kirjutame olemasolevale konsoolireale. Console.Write abil sõne, mis sisaldab endas ühte visuaalset elementi &quot;█&quot;" style="shape=parallelogram;perimeter=parallelogramPerimeter;whiteSpace=wrap;html=1;fixedSize=1;" vertex="1" parent="WIyWlLk6GJQsqaUBKTNV-1">
          <mxGeometry x="230" y="1420" width="220" height="60" as="geometry" />
        </mxCell>
        <mxCell id="4uAdI3qDmeeAsnVQvqSh-25" value="inkrementeerime muutujat &quot;j&quot; ühe võrra" style="shape=parallelogram;perimeter=parallelogramPerimeter;whiteSpace=wrap;html=1;fixedSize=1;" vertex="1" parent="WIyWlLk6GJQsqaUBKTNV-1">
          <mxGeometry x="260" y="1500" width="160" height="60" as="geometry" />
        </mxCell>
        <mxCell id="4uAdI3qDmeeAsnVQvqSh-28" value="" style="endArrow=none;html=1;rounded=0;entryX=0.5;entryY=1;entryDx=0;entryDy=0;" edge="1" parent="WIyWlLk6GJQsqaUBKTNV-1" target="4uAdI3qDmeeAsnVQvqSh-25">
          <mxGeometry width="50" height="50" relative="1" as="geometry">
            <mxPoint x="340" y="1250" as="sourcePoint" />
            <mxPoint x="380" y="1170" as="targetPoint" />
            <Array as="points">
              <mxPoint x="560" y="1250" />
              <mxPoint x="560" y="1390" />
              <mxPoint x="560" y="1560" />
            </Array>
          </mxGeometry>
        </mxCell>
        <mxCell id="4uAdI3qDmeeAsnVQvqSh-31" style="edgeStyle=orthogonalEdgeStyle;rounded=0;orthogonalLoop=1;jettySize=auto;html=1;entryX=1;entryY=0.5;entryDx=0;entryDy=0;" edge="1" parent="WIyWlLk6GJQsqaUBKTNV-1" source="4uAdI3qDmeeAsnVQvqSh-29" target="4uAdI3qDmeeAsnVQvqSh-13">
          <mxGeometry relative="1" as="geometry">
            <Array as="points">
              <mxPoint x="630" y="1640" />
              <mxPoint x="630" y="946" />
            </Array>
          </mxGeometry>
        </mxCell>
        <mxCell id="4uAdI3qDmeeAsnVQvqSh-33" value="" style="edgeStyle=orthogonalEdgeStyle;rounded=0;orthogonalLoop=1;jettySize=auto;html=1;" edge="1" parent="WIyWlLk6GJQsqaUBKTNV-1" source="4uAdI3qDmeeAsnVQvqSh-29" target="4uAdI3qDmeeAsnVQvqSh-32">
          <mxGeometry relative="1" as="geometry" />
        </mxCell>
        <mxCell id="4uAdI3qDmeeAsnVQvqSh-29" value="inkrementeerime muutuja &quot;i&quot; ühe võrra" style="shape=parallelogram;perimeter=parallelogramPerimeter;whiteSpace=wrap;html=1;fixedSize=1;" vertex="1" parent="WIyWlLk6GJQsqaUBKTNV-1">
          <mxGeometry x="240" y="1610.01" width="180" height="60" as="geometry" />
        </mxCell>
        <mxCell id="4uAdI3qDmeeAsnVQvqSh-32" value="Lõpp" style="ellipse;whiteSpace=wrap;html=1;" vertex="1" parent="WIyWlLk6GJQsqaUBKTNV-1">
          <mxGeometry x="290" y="1740.01" width="80" height="80" as="geometry" />
        </mxCell>
      </root>
    </mxGraphModel>
  </diagram>
</mxfile>
